<svg width="36" height="40" viewBox="0 0 36 40" fill="none" xmlns="http://www.w3.org/2000/svg">
<rect x="11.3535" y="0.00683594" width="23.9658" height="4.5958" rx="0.31459" fill="white"/>
<rect y="28.7314" width="18.0002" height="4.49359" rx="0.629179" transform="rotate(-90 0 28.7314)" fill="white"/>
<rect x="11.6074" y="35.043" width="23.9658" height="4.5958" rx="0.31459" fill="white"/>
<rect width="15.895" height="4.54854" rx="0.31459" transform="matrix(0.723652 -0.690165 0.673759 0.738951 0.00585938 10.9707)" fill="white"/>
<rect width="15.895" height="4.54854" transform="matrix(0.723652 0.690165 -0.673759 0.738951 3.25195 25.2773)" fill="white"/>
<rect x="15.6582" y="8.61523" width="19.6595" height="4.5958" rx="0.31459" fill="white"/>
<rect x="13.666" y="17.4238" width="14.2297" height="4.5958" fill="white"/>
<rect x="9.17383" y="25.085" width="10.3405" height="4.49359" rx="0.629179" transform="rotate(-90 9.17383 25.085)" fill="white"/>
<rect x="15.6582" y="26.6162" width="19.6595" height="4.5958" rx="0.31459" fill="white"/>
<rect width="9.1204" height="4.54854" rx="0.31459" transform="matrix(0.723652 -0.690165 0.673759 0.738951 9.17578 14.9111)" fill="white"/>
<rect width="9.1204" height="4.54854" rx="0.31459" transform="matrix(0.723652 0.690165 -0.673759 0.738951 12.2344 21.6367)" fill="white"/>
</svg>
