<svg width="60" height="61" viewBox="0 0 60 61" fill="none" xmlns="http://www.w3.org/2000/svg">
<path d="M10 35.8102C10 39.6999 11.173 43.5023 13.3706 46.7364C15.5682 49.9706 18.6918 52.4913 22.3463 53.9799C26.0009 55.4684 30.0222 55.8578 33.9018 55.099C37.7814 54.3402 41.3451 52.4671 44.1421 49.7167C46.9392 46.9662 48.844 43.462 49.6157 39.647C50.3874 35.832 49.9913 31.8777 48.4776 28.2841C46.9638 24.6905 44.4004 21.619 41.1114 19.458C37.8224 17.297 33.9556 16.1436 30 16.1436C24.6957 16.1436 19.6086 18.2156 15.8579 21.9038C12.1071 25.592 10 30.5943 10 35.8102ZM30 21.0602C32.9667 21.0602 35.8668 21.9253 38.3336 23.546C40.8003 25.1668 42.7229 27.4704 43.8582 30.1656C44.9935 32.8608 45.2906 35.8266 44.7118 38.6878C44.133 41.549 42.7044 44.1772 40.6066 46.24C38.5088 48.3029 35.8361 49.7077 32.9264 50.2768C30.0166 50.8459 27.0006 50.5538 24.2597 49.4374C21.5189 48.3211 19.1762 46.4305 17.528 44.0049C15.8797 41.5793 15 38.7275 15 35.8102C15 31.8983 16.5804 28.1466 19.3934 25.3804C22.2064 22.6142 26.0218 21.0602 30 21.0602Z" fill="white"/>
<path d="M35 6.31055H25V11.2272H35V6.31055Z" fill="white"/>
<path d="M14.4758 10.7136L6.98047 18.084L10.516 21.5606L18.0113 14.1902L14.4758 10.7136Z" fill="white"/>
<path d="M32.5 25.9775H27.5V38.2692H32.5V25.9775Z" fill="white"/>
</svg>
