<svg width="60" height="61" viewBox="0 0 60 61" fill="none" xmlns="http://www.w3.org/2000/svg">
<g clip-path="url(#clip0_2125_16628)">
<path d="M52.5303 25.0938L50.8094 13.9105C50.7338 13.4188 50.4847 12.9703 50.1072 12.6463C49.7297 12.3223 49.2486 12.144 48.7511 12.1438C37.3615 12.1438 31.524 6.55217 31.474 6.50426C31.0837 6.11623 30.5557 5.89844 30.0053 5.89844C29.4549 5.89844 28.9269 6.11623 28.5365 6.50426C28.4782 6.55217 22.6407 12.1438 11.2511 12.1438C10.7536 12.144 10.2726 12.3223 9.89504 12.6463C9.51751 12.9703 9.2684 13.4188 9.19278 13.9105L7.47195 25.0938C6.7001 30.174 7.50802 35.3686 9.78631 39.9744C12.0646 44.5801 15.7032 48.3745 20.2094 50.8438L29.0011 55.6355C29.3072 55.8025 29.6503 55.8901 29.999 55.8901C30.3477 55.8901 30.6909 55.8025 30.9969 55.6355L39.7886 50.8438C44.2956 48.3752 47.9351 44.581 50.2141 39.9752C52.4932 35.3694 53.3017 30.1744 52.5303 25.0938ZM37.7969 47.1772L30.0011 51.4376L22.2053 47.1855C18.4485 45.1289 15.4144 41.9675 13.5139 38.1293C11.6135 34.2912 10.9385 29.9617 11.5803 25.7272L13.0386 16.2668C19.1213 16.1306 25.026 14.1877 30.0011 10.6855C34.9743 14.1873 40.8766 16.1308 46.9574 16.2688L48.4157 25.7272C49.0581 29.961 48.384 34.29 46.4847 38.1281C44.5854 41.9662 41.5526 45.128 37.7969 47.1855V47.1772Z" fill="white"/>
<path d="M36.8613 23.1708L25.8342 34.1978L23.1404 31.5041C22.9483 31.3051 22.7184 31.1464 22.4642 31.0372C22.21 30.928 21.9367 30.8706 21.66 30.8681C21.3834 30.8657 21.1091 30.9185 20.853 31.0232C20.597 31.128 20.3644 31.2827 20.1688 31.4783C19.9732 31.6739 19.8185 31.9065 19.7137 32.1625C19.609 32.4186 19.5563 32.6929 19.5587 32.9695C19.5611 33.2461 19.6185 33.5195 19.7277 33.7737C19.8369 34.0279 19.9956 34.2577 20.1946 34.4499L24.3613 38.6166C24.752 39.0072 25.2818 39.2266 25.8342 39.2266C26.3866 39.2266 26.9164 39.0072 27.3071 38.6166L39.8071 26.1166C40.1866 25.7237 40.3966 25.1974 40.3919 24.6512C40.3871 24.1049 40.168 23.5824 39.7817 23.1961C39.3955 22.8099 38.8729 22.5908 38.3267 22.586C37.7805 22.5813 37.2542 22.7913 36.8613 23.1708Z" fill="white"/>
</g>
<defs>
<clipPath id="clip0_2125_16628">
<rect width="50" height="50" fill="white" transform="translate(5 5.89355)"/>
</clipPath>
</defs>
</svg>
