<svg width="16" height="16" viewBox="0 0 16 16" fill="none" xmlns="http://www.w3.org/2000/svg">
<g clip-path="url(#clip0_1787_10982)">
<path d="M7.76259 15.5252C9.82136 15.5252 11.7958 14.7073 13.2516 13.2516C14.7073 11.7958 15.5252 9.82136 15.5252 7.76259C15.5252 5.70382 14.7073 3.72938 13.2516 2.27361C11.7958 0.817842 9.82136 0 7.76259 0C5.70382 0 3.72938 0.817842 2.27361 2.27361C0.817842 3.72938 0 5.70382 0 7.76259C0 9.82136 0.817842 11.7958 2.27361 13.2516C3.72938 14.7073 5.70382 15.5252 7.76259 15.5252ZM11.189 6.33743L7.30775 10.2187C7.02272 10.5038 6.56181 10.5038 6.27981 10.2187L4.33917 8.27807C4.05413 7.99304 4.05413 7.53214 4.33917 7.25014C4.6242 6.96814 5.0851 6.96511 5.3671 7.25014L6.79227 8.6753L10.1581 5.30646C10.4431 5.02143 10.904 5.02143 11.186 5.30646C11.468 5.59149 11.471 6.05239 11.186 6.33439L11.189 6.33743Z" fill="#16A34A"/>
</g>
<defs>
<clipPath id="clip0_1787_10982">
<path d="M0 0H15.5252V15.5252H0V0Z" fill="white"/>
</clipPath>
</defs>
</svg>
