<svg width="20" height="21" viewBox="0 0 20 21" fill="none" xmlns="http://www.w3.org/2000/svg">
<path d="M13.3327 18.1387V16.472C13.3327 15.588 12.9815 14.7401 12.3564 14.115C11.7313 13.4899 10.8834 13.1387 9.99935 13.1387H4.99935C4.11529 13.1387 3.26745 13.4899 2.64233 14.115C2.01721 14.7401 1.66602 15.588 1.66602 16.472V18.1387" stroke="white" stroke-linecap="round" stroke-linejoin="round"/>
<path d="M13.334 3.24512C14.0488 3.43043 14.6818 3.84784 15.1337 4.43184C15.5856 5.01583 15.8308 5.73336 15.8308 6.47178C15.8308 7.21021 15.5856 7.92773 15.1337 8.51173C14.6818 9.09573 14.0488 9.51314 13.334 9.69845" stroke="white" stroke-linecap="round" stroke-linejoin="round"/>
<path d="M18.334 18.1387V16.4721C18.3334 15.7335 18.0876 15.016 17.6351 14.4323C17.1826 13.8486 16.5491 13.4317 15.834 13.2471" stroke="white" stroke-linecap="round" stroke-linejoin="round"/>
<path d="M7.49935 9.80534C9.3403 9.80534 10.8327 8.31295 10.8327 6.47201C10.8327 4.63106 9.3403 3.13867 7.49935 3.13867C5.6584 3.13867 4.16602 4.63106 4.16602 6.47201C4.16602 8.31295 5.6584 9.80534 7.49935 9.80534Z" stroke="white" stroke-linecap="round" stroke-linejoin="round"/>
</svg>
