<svg width="18" height="16" viewBox="0 0 18 16" fill="none" xmlns="http://www.w3.org/2000/svg">
<g clip-path="url(#clip0_1787_9544)">
<path d="M17.5352 7.62402C17.5352 8.15137 17.0957 8.56445 16.5977 8.56445H15.6602L15.6807 13.2578C15.6807 13.3369 15.6748 13.416 15.666 13.4951V13.9668C15.666 14.6143 15.1416 15.1387 14.4941 15.1387H14.0254C13.9932 15.1387 13.9609 15.1387 13.9287 15.1357C13.8877 15.1387 13.8467 15.1387 13.8057 15.1387H12.8535H12.1504C11.5029 15.1387 10.9785 14.6143 10.9785 13.9668V13.2637V11.3887C10.9785 10.8701 10.5596 10.4512 10.041 10.4512H8.16602C7.64746 10.4512 7.22852 10.8701 7.22852 11.3887V13.2637V13.9668C7.22852 14.6143 6.7041 15.1387 6.05664 15.1387H5.35352H4.41895C4.375 15.1387 4.33105 15.1357 4.28711 15.1328C4.25195 15.1357 4.2168 15.1387 4.18164 15.1387H3.71289C3.06543 15.1387 2.54102 14.6143 2.54102 13.9668V10.6855C2.54102 10.6592 2.54102 10.6299 2.54395 10.6035V8.56445H1.60352C1.07617 8.56445 0.666016 8.1543 0.666016 7.62402C0.666016 7.36035 0.753906 7.12598 0.958984 6.9209L8.4707 0.373047C8.67578 0.167969 8.91016 0.138672 9.11523 0.138672C9.32031 0.138672 9.55469 0.197266 9.73047 0.34375L17.2129 6.9209C17.4473 7.12598 17.5645 7.36035 17.5352 7.62402Z" fill="white"/>
</g>
<defs>
<clipPath id="clip0_1787_9544">
<rect width="16.875" height="15" fill="white" transform="translate(0.666016 0.138672)"/>
</clipPath>
</defs>
</svg>
