<svg width="18" height="14" viewBox="0 0 18 14" fill="none" xmlns="http://www.w3.org/2000/svg">
<g clip-path="url(#clip0_1787_9572)">
<path d="M2.625 1.75C2.625 1.26602 3.01602 0.875 3.5 0.875H4.375C4.85898 0.875 5.25 1.26602 5.25 1.75V6.125V7.875V12.25C5.25 12.734 4.85898 13.125 4.375 13.125H3.5C3.01602 13.125 2.625 12.734 2.625 12.25V10.5H1.75C1.26602 10.5 0.875 10.109 0.875 9.625V7.875C0.391016 7.875 0 7.48398 0 7C0 6.51602 0.391016 6.125 0.875 6.125V4.375C0.875 3.89102 1.26602 3.5 1.75 3.5H2.625V1.75ZM14.875 1.75V3.5H15.75C16.234 3.5 16.625 3.89102 16.625 4.375V6.125C17.109 6.125 17.5 6.51602 17.5 7C17.5 7.48398 17.109 7.875 16.625 7.875V9.625C16.625 10.109 16.234 10.5 15.75 10.5H14.875V12.25C14.875 12.734 14.484 13.125 14 13.125H13.125C12.641 13.125 12.25 12.734 12.25 12.25V7.875V6.125V1.75C12.25 1.26602 12.641 0.875 13.125 0.875H14C14.484 0.875 14.875 1.26602 14.875 1.75ZM11.375 6.125V7.875H6.125V6.125H11.375Z" fill="#F4F5F7"/>
</g>
<defs>
<clipPath id="clip0_1787_9572">
<rect width="17.5" height="14" fill="white"/>
</clipPath>
</defs>
</svg>
