<svg width="20" height="21" viewBox="0 0 20 21" fill="none" xmlns="http://www.w3.org/2000/svg">
<path d="M18.3327 14.8053C18.3327 15.2474 18.1571 15.6713 17.8445 15.9838C17.532 16.2964 17.108 16.472 16.666 16.472H5.68935C5.24736 16.4721 4.8235 16.6478 4.51102 16.9603L2.67602 18.7953C2.59327 18.8781 2.48785 18.9344 2.37309 18.9572C2.25833 18.9801 2.13938 18.9683 2.03127 18.9236C1.92317 18.8788 1.83077 18.803 1.76575 18.7057C1.70074 18.6084 1.66603 18.494 1.66602 18.377V4.80534C1.66602 4.36331 1.84161 3.93939 2.15417 3.62683C2.46673 3.31427 2.89065 3.13867 3.33268 3.13867H16.666C17.108 3.13867 17.532 3.31427 17.8445 3.62683C18.1571 3.93939 18.3327 4.36331 18.3327 4.80534V14.8053Z" stroke="#F4F5F7" stroke-linecap="round" stroke-linejoin="round"/>
<path d="M5.83398 9.80566H14.1673" stroke="#F4F5F7" stroke-linecap="round" stroke-linejoin="round"/>
<path d="M5.83398 13.1387H10.834" stroke="#F4F5F7" stroke-linecap="round" stroke-linejoin="round"/>
<path d="M5.83398 6.47168H12.5007" stroke="#F4F5F7" stroke-linecap="round" stroke-linejoin="round"/>
</svg>
