<svg width="20" height="21" viewBox="0 0 20 21" fill="none" xmlns="http://www.w3.org/2000/svg">
<path d="M10 13.9717V18.1383" stroke="white" stroke-linecap="round" stroke-linejoin="round"/>
<path d="M13.334 12.3057V18.139" stroke="white" stroke-linecap="round" stroke-linejoin="round"/>
<path d="M16.666 8.97168V18.1383" stroke="white" stroke-linecap="round" stroke-linejoin="round"/>
<path d="M18.3327 3.13867L11.1277 10.3437C11.089 10.3825 11.043 10.4133 10.9924 10.4343C10.9418 10.4553 10.8875 10.4661 10.8327 10.4661C10.7779 10.4661 10.7236 10.4553 10.673 10.4343C10.6224 10.4133 10.5764 10.3825 10.5377 10.3437L7.79435 7.60034C7.71621 7.52223 7.61025 7.47834 7.49977 7.47834C7.38928 7.47834 7.28332 7.52223 7.20518 7.60034L1.66602 13.1387" stroke="white" stroke-linecap="round" stroke-linejoin="round"/>
<path d="M3.33398 15.6387V18.1387" stroke="white" stroke-linecap="round" stroke-linejoin="round"/>
<path d="M6.66602 12.3057V18.139" stroke="white" stroke-linecap="round" stroke-linejoin="round"/>
</svg>
