<svg width="20" height="21" viewBox="0 0 20 21" fill="none" xmlns="http://www.w3.org/2000/svg">
<path d="M8.05991 4.08579C8.10582 3.60274 8.33019 3.15416 8.68916 2.82769C9.04813 2.50122 9.51593 2.32031 10.0012 2.32031C10.4864 2.32031 10.9542 2.50122 11.3132 2.82769C11.6721 3.15416 11.8965 3.60274 11.9424 4.08579C11.97 4.39784 12.0724 4.69864 12.2409 4.96274C12.4093 5.22684 12.639 5.44646 12.9103 5.60302C13.1816 5.75958 13.4867 5.84846 13.7997 5.86214C14.1126 5.87582 14.4243 5.8139 14.7082 5.68162C15.1492 5.48144 15.6488 5.45247 16.1099 5.60036C16.571 5.74825 16.9606 6.06242 17.2028 6.48171C17.4451 6.90101 17.5226 7.39543 17.4204 7.86877C17.3182 8.3421 17.0436 8.76047 16.6499 9.04246C16.3936 9.22233 16.1843 9.4613 16.0398 9.73914C15.8954 10.017 15.8199 10.3255 15.8199 10.6387C15.8199 10.9519 15.8954 11.2604 16.0398 11.5383C16.1843 11.8161 16.3936 12.0551 16.6499 12.235C17.0436 12.5169 17.3182 12.9353 17.4204 13.4086C17.5226 13.882 17.4451 14.3764 17.2028 14.7957C16.9606 15.215 16.571 15.5292 16.1099 15.6771C15.6488 15.8249 15.1492 15.796 14.7082 15.5958C14.4243 15.4635 14.1126 15.4016 13.7997 15.4153C13.4867 15.429 13.1816 15.5178 12.9103 15.6744C12.639 15.8309 12.4093 16.0506 12.2409 16.3147C12.0724 16.5788 11.97 16.8796 11.9424 17.1916C11.8965 17.6747 11.6721 18.1233 11.3132 18.4497C10.9542 18.7762 10.4864 18.9571 10.0012 18.9571C9.51593 18.9571 9.04813 18.7762 8.68916 18.4497C8.33019 18.1233 8.10582 17.6747 8.05991 17.1916C8.03236 16.8795 7.92999 16.5785 7.76146 16.3144C7.59294 16.0502 7.36322 15.8305 7.09177 15.6739C6.82032 15.5173 6.51513 15.4285 6.20206 15.4149C5.88898 15.4013 5.57724 15.4633 5.29324 15.5958C4.85232 15.796 4.35268 15.8249 3.89158 15.6771C3.43047 15.5292 3.04089 15.215 2.79864 14.7957C2.5564 14.3764 2.47884 13.882 2.58104 13.4086C2.68325 12.9353 2.95791 12.5169 3.35158 12.235C3.60793 12.0551 3.81718 11.8161 3.96165 11.5383C4.10611 11.2604 4.18154 10.9519 4.18154 10.6387C4.18154 10.3255 4.10611 10.017 3.96165 9.73914C3.81718 9.4613 3.60793 9.22233 3.35158 9.04246C2.95846 8.76033 2.68428 8.34212 2.58233 7.86911C2.48037 7.3961 2.55792 6.90207 2.7999 6.48305C3.04188 6.06403 3.431 5.74994 3.89165 5.60182C4.3523 5.45371 4.85156 5.48215 5.29241 5.68162C5.57637 5.8139 5.88803 5.87582 6.20099 5.86214C6.51396 5.84846 6.81902 5.75958 7.09036 5.60302C7.36169 5.44646 7.59132 5.22684 7.7598 4.96274C7.92827 4.69864 8.03064 4.39784 8.05824 4.08579" stroke="white" stroke-linecap="round" stroke-linejoin="round"/>
<path d="M10 13.1387C11.3807 13.1387 12.5 12.0194 12.5 10.6387C12.5 9.25796 11.3807 8.13867 10 8.13867C8.61929 8.13867 7.5 9.25796 7.5 10.6387C7.5 12.0194 8.61929 13.1387 10 13.1387Z" stroke="white" stroke-linecap="round" stroke-linejoin="round"/>
</svg>
