<svg width="51" height="50" viewBox="0 0 51 50" fill="none" xmlns="http://www.w3.org/2000/svg">
<path d="M15.002 38.916H45.4707V41.8457H15.002V38.916Z" fill="white"/>
<path d="M10.8955 45.8008C7.89258 45.8008 5.45117 43.3594 5.45117 40.3564C5.45117 37.3535 7.89746 34.9121 10.8955 34.9121C13.8936 34.9121 16.3398 37.3535 16.3398 40.3564C16.3398 43.3594 13.8984 45.8008 10.8955 45.8008ZM10.8955 37.8418C9.50879 37.8418 8.38086 38.9697 8.38086 40.3564C8.38086 41.7432 9.50879 42.8711 10.8955 42.8711C12.2822 42.8711 13.4102 41.7432 13.4102 40.3564C13.4102 38.9697 12.2822 37.8418 10.8955 37.8418ZM38.0977 23.5352H45.4707V26.4648H38.0977V23.5352ZM6.89648 23.5352H29.748V26.4648H6.89648V23.5352Z" fill="white"/>
<path d="M33.9326 30.4443C30.9297 30.4443 28.4883 28.0029 28.4883 25C28.4883 21.9971 30.9297 19.5557 33.9326 19.5557C36.9355 19.5557 39.377 21.9971 39.377 25C39.377 28.0029 36.9355 30.4443 33.9326 30.4443ZM33.9326 22.4854C32.5459 22.4854 31.418 23.6133 31.418 25C31.418 26.3867 32.5459 27.5146 33.9326 27.5146C35.3193 27.5146 36.4473 26.3867 36.4473 25C36.4473 23.6133 35.3193 22.4854 33.9326 22.4854ZM23.4492 8.1543H45.4707V11.084H23.4492V8.1543ZM6.89648 8.1543H15.0996V11.084H6.89648V8.1543Z" fill="white"/>
<path d="M19.2744 15.0879C16.2715 15.0879 13.8301 12.6465 13.8301 9.64355C13.8301 6.64062 16.2715 4.19922 19.2744 4.19922C22.2773 4.19922 24.7188 6.64062 24.7188 9.64355C24.7188 12.6465 22.2725 15.0879 19.2744 15.0879ZM19.2744 7.12891C17.8877 7.12891 16.7598 8.25684 16.7598 9.64355C16.7598 11.0303 17.8877 12.1582 19.2744 12.1582C20.6611 12.1582 21.7891 11.0303 21.7891 9.64355C21.7891 8.25684 20.6611 7.12891 19.2744 7.12891Z" fill="white"/>
</svg>
