<svg width="40" height="50" viewBox="0 0 40 50" fill="none" xmlns="http://www.w3.org/2000/svg">
<path d="M34.2831 6.55092H29.7597V4.5273C29.7597 3.87258 29.0455 3.57501 28.3908 3.57501H24.8792C24.0459 1.19424 21.9627 0.00385377 19.582 0.00385377C17.2274 -0.0846648 15.0857 1.35909 14.2848 3.57501H10.8326C10.1779 3.57501 9.52321 3.87258 9.52321 4.5273V6.55092H4.99965C2.31903 6.57952 0.125999 8.69417 0 11.3719V45.4764C0 48.0953 2.38077 49.9999 4.99965 49.9999H34.2831C36.902 49.9999 39.2828 48.0953 39.2828 45.4764V11.3721C39.1568 8.69417 36.9637 6.57952 34.2831 6.55092ZM11.9039 5.95579H15.1775C15.4558 5.92182 15.7159 5.7994 15.9195 5.60654C16.1231 5.41369 16.2594 5.16057 16.3084 4.88445C16.6609 3.34945 18.0075 2.24758 19.582 2.20611C21.1418 2.25339 22.4682 3.35867 22.796 4.88445C22.8479 5.16958 22.9929 5.42944 23.2083 5.62332C23.4237 5.81719 23.6974 5.93412 23.9864 5.95579H27.379V10.7173H11.9039V5.95579ZM36.902 45.4765C36.902 46.786 35.5925 47.6192 34.2831 47.6192H4.99965C3.69021 47.6192 2.38077 46.786 2.38077 45.4765V11.3721C2.50222 10.0091 3.63143 8.95676 4.99965 8.93181H9.52309V11.9673C9.58598 12.6342 10.1636 13.1331 10.8325 13.0982H28.3906C28.7192 13.1162 29.0424 13.0098 29.2961 12.8003C29.5498 12.5907 29.7152 12.2933 29.7596 11.9673V8.9317H34.283C35.6511 8.95676 36.7804 10.009 36.9019 11.3719V45.4765H36.902Z" fill="white"/>
<path d="M15.0581 26.609C14.6117 26.1384 13.8705 26.1119 13.3915 26.5496L9.58228 30.1802L7.97527 28.5136C7.52881 28.043 6.78762 28.0166 6.30869 28.4542C6.08673 28.6867 5.96289 28.9957 5.96289 29.3172C5.96289 29.6386 6.08673 29.9477 6.30869 30.1802L8.74893 32.68C8.85326 32.7969 8.98194 32.8894 9.1259 32.9511C9.26987 33.0128 9.42561 33.0422 9.58216 33.0372C9.89615 33.0327 10.1957 32.9044 10.4154 32.68L15.0579 28.2756C15.5181 27.8534 15.5489 27.138 15.1266 26.6779C15.1049 26.6538 15.082 26.6309 15.0581 26.609ZM32.1402 29.1683H18.4508C17.7933 29.1683 17.2604 29.7013 17.2604 30.3587C17.2604 31.0162 17.7933 31.5491 18.4508 31.5491H32.1402C32.7976 31.5491 33.3305 31.0162 33.3305 30.3587C33.3305 29.7013 32.7976 29.1683 32.1402 29.1683ZM15.0581 17.086C14.6117 16.6153 13.8705 16.5888 13.3915 17.0265L9.58228 20.6571L7.97527 18.9905C7.52881 18.5199 6.78762 18.4934 6.30869 18.9311C6.08673 19.1636 5.96289 19.4727 5.96289 19.7941C5.96289 20.1155 6.08673 20.4246 6.30869 20.6571L8.74893 23.1569C8.85326 23.2738 8.98194 23.3663 9.1259 23.428C9.26987 23.4897 9.42561 23.5191 9.58216 23.5141C9.89615 23.5096 10.1957 23.3813 10.4154 23.1569L15.0579 18.7525C15.5181 18.3303 15.5489 17.6149 15.1266 17.1548C15.1049 17.1307 15.082 17.1078 15.0581 17.086ZM32.1402 19.6452H18.4508C17.7933 19.6452 17.2604 20.1782 17.2604 20.8356C17.2604 21.4931 17.7933 22.026 18.4508 22.026H32.1402C32.7976 22.026 33.3305 21.4931 33.3305 20.8356C33.3305 20.1782 32.7976 19.6452 32.1402 19.6452ZM15.0581 36.132C14.6117 35.6614 13.8705 35.635 13.3915 36.0726L9.58228 39.7032L7.97527 38.0366C7.52881 37.566 6.78762 37.5396 6.30869 37.9771C6.08673 38.2096 5.96289 38.5187 5.96289 38.8402C5.96289 39.1616 6.08673 39.4707 6.30869 39.7032L8.74893 42.203C8.85326 42.3198 8.98194 42.4124 9.1259 42.4741C9.26987 42.5358 9.42561 42.5652 9.58216 42.5602C9.89615 42.5557 10.1957 42.4273 10.4154 42.203L15.0579 37.7986C15.5181 37.3764 15.5489 36.661 15.1266 36.2008C15.1048 36.1769 15.082 36.1539 15.0581 36.132ZM32.1402 38.6914H18.4508C17.7933 38.6914 17.2604 39.2244 17.2604 39.8818C17.2604 40.5393 17.7933 41.0722 18.4508 41.0722H32.1402C32.7976 41.0722 33.3305 40.5393 33.3305 39.8818C33.3305 39.2244 32.7976 38.6914 32.1402 38.6914Z" fill="white"/>
</svg>
