<svg width="41" height="40" viewBox="0 0 41 40" fill="none" xmlns="http://www.w3.org/2000/svg">
<g clip-path="url(#clip0_1500_5637)">
<path d="M2.16672 16.6667L2.16649 19.9988C2.16637 19.9982 2.16649 19.9993 2.16649 19.9988C2.16661 19.9994 2.16661 20.0011 2.16649 20.0017L2.16614 23.3332C2.16555 24.2521 2.54008 25.086 3.14324 25.6892C3.74746 26.2934 4.58126 26.668 5.50026 26.6673C5.49967 27.5862 5.8742 28.4201 6.47737 29.0233C7.08053 29.6264 7.91421 30.001 8.83333 30.0004C9.72405 30.0004 10.5608 29.6539 11.1904 29.0243C11.8205 28.3942 12.1675 27.557 12.1664 26.6673L12.1666 21.6667L28.8331 21.6667L28.8329 26.6678C28.8334 27.5856 29.208 28.4194 29.8112 29.0226C30.4143 29.6257 31.248 30.0003 32.166 30.0009C34.0046 30.0014 35.5006 28.5054 35.5 26.6668C37.3386 26.6674 38.8335 25.1725 38.8329 23.3339L38.8332 20.0018C38.8332 20.0013 38.8333 20.0024 38.8332 20.0018C38.833 20.0012 38.833 19.9995 38.8332 19.9989L38.8335 16.6674C38.8335 14.8268 37.3376 13.3326 35.4994 13.3335C35.5006 11.4955 34.0044 9.99916 32.1664 10.0003C31.2757 10.0003 30.439 10.3468 29.8094 10.9764C29.1793 11.6065 28.8323 12.4437 28.8334 13.3334L28.8331 18.3341L12.1666 18.3341L12.1669 13.3329C12.1657 11.4973 10.6702 10.0006 8.83333 10.0006C6.99473 9.99999 5.4992 11.4955 5.49979 13.3341C3.66119 13.3331 2.16614 14.8281 2.16672 16.6667ZM32.1664 26.6673L32.1664 21.6667L32.167 23.3337C32.167 23.3374 32.1682 23.3412 32.1682 23.3452L32.1688 26.6673L32.1664 26.6673ZM35.5023 23.3338L35.5 23.3338L35.5001 21.6668L35.5023 23.3338ZM32.1666 16.6661L32.1666 13.3331L32.1671 16.6603C32.167 16.6623 32.1666 16.6642 32.1666 16.6661ZM8.83568 26.6673L8.83333 26.6673L8.83333 21.6667L8.83568 26.6673Z" fill="#F4F5F7"/>
</g>
<defs>
<clipPath id="clip0_1500_5637">
<rect width="40" height="40" fill="white" transform="translate(0.5)"/>
</clipPath>
</defs>
</svg>
