<svg width="46" height="46" viewBox="0 0 46 46" fill="none" xmlns="http://www.w3.org/2000/svg">
<path fill-rule="evenodd" clip-rule="evenodd" d="M34.875 29.25C34.875 28.8356 35.0396 28.4382 35.3326 28.1451C35.6257 27.8521 36.0231 27.6875 36.4375 27.6875C36.8519 27.6875 37.2493 27.8521 37.5424 28.1451C37.8354 28.4382 38 28.8356 38 29.25V43.8333C38 44.2477 37.8354 44.6452 37.5424 44.9382C37.2493 45.2312 36.8519 45.3958 36.4375 45.3958C36.0231 45.3958 35.6257 45.2312 35.3326 44.9382C35.0396 44.6452 34.875 44.2477 34.875 43.8333V29.25Z" fill="white"/>
<path fill-rule="evenodd" clip-rule="evenodd" d="M29.1458 38.1045C28.7314 38.1045 28.334 37.9399 28.041 37.6469C27.748 37.3538 27.5833 36.9564 27.5833 36.542C27.5833 36.1276 27.748 35.7302 28.041 35.4371C28.334 35.1441 28.7314 34.9795 29.1458 34.9795H43.7292C44.1436 34.9795 44.541 35.1441 44.834 35.4371C45.1271 35.7302 45.2917 36.1276 45.2917 36.542C45.2917 36.9564 45.1271 37.3538 44.834 37.6469C44.541 37.9399 44.1436 38.1045 43.7292 38.1045H29.1458ZM19.7708 0.604492C26.0958 0.604492 31.2292 5.73783 31.2292 12.0628C31.2292 18.3878 26.0958 23.5212 19.7708 23.5212C13.4458 23.5212 8.31251 18.3878 8.31251 12.0628C8.31251 5.73783 13.4458 0.604492 19.7708 0.604492ZM19.7708 3.72949C15.1708 3.72949 11.4375 7.46283 11.4375 12.0628C11.4375 16.6628 15.1708 20.3962 19.7708 20.3962C24.3708 20.3962 28.1042 16.6628 28.1042 12.0628C28.1042 7.46283 24.3708 3.72949 19.7708 3.72949ZM2.06251 45.3962C1.82344 45.3962 1.58756 45.3414 1.37302 45.2359C1.15848 45.1304 0.970994 44.9771 0.825006 44.7878C0.648179 44.5723 0.539407 44.3091 0.512506 44.0316C0.503996 43.966 0.49982 43.8998 0.500006 43.8337V41.7503C0.500006 37.4682 2.20108 33.3614 5.22901 30.3335C8.25694 27.3056 12.3637 25.6045 16.6458 25.6045H28.1042C28.5186 25.6045 28.916 25.7691 29.209 26.0621C29.5021 26.3552 29.6667 26.7526 29.6667 27.167C29.6667 27.5814 29.5021 27.9788 29.209 28.2718C28.916 28.5649 28.5186 28.7295 28.1042 28.7295H16.6458C13.1925 28.7295 9.8806 30.1013 7.43872 32.5432C4.99684 34.9851 3.62501 38.297 3.62501 41.7503V43.8087C3.62501 45.2837 2.06251 45.3962 2.06251 45.3962Z" fill="white"/>
</svg>
