<svg width="50" height="50" viewBox="0 0 50 50" fill="none" xmlns="http://www.w3.org/2000/svg">
<g clip-path="url(#clip0_1500_5647)">
<path d="M48.5351 3.60868H42.1188C42.142 2.89804 42.155 2.1831 42.155 1.46484C42.155 0.65576 41.4988 0 40.6902 0H9.30975C8.50106 0 7.84491 0.65576 7.84491 1.46484C7.84491 2.1831 7.85789 2.89804 7.88114 3.60868H1.46484C0.65576 3.60868 0 4.26444 0 5.07352C0 11.6371 1.71543 17.8295 4.83007 22.5105C7.90897 27.1381 12.0101 29.7923 16.4406 30.0505C17.445 31.1435 18.5066 32.0346 19.6125 32.7144V39.2249H17.155C14.1842 39.2249 11.7676 41.6419 11.7676 44.6124V47.0698H11.6635C10.8543 47.0698 10.1986 47.726 10.1986 48.5347C10.1986 49.3438 10.8543 49.9995 11.6635 49.9995H38.3364C39.1456 49.9995 39.8013 49.3438 39.8013 48.5347C39.8013 47.726 39.1456 47.0698 38.3364 47.0698H38.2323V44.6124C38.2323 41.6419 35.8158 39.2249 32.8449 39.2249H30.3874V32.7144C31.4933 32.035 32.5554 31.1435 33.5597 30.0506C37.9898 29.7923 42.0909 27.1381 45.1701 22.5105C48.2848 17.8295 49.9999 11.6371 49.9999 5.07352C49.9999 4.26444 49.3441 3.60868 48.5351 3.60868ZM7.26922 20.8878C4.70009 17.0268 3.19062 11.977 2.96064 6.53837H8.04481C8.57313 13.224 10.1425 19.4038 12.5954 24.3091C12.986 25.0904 13.3945 25.8285 13.8183 26.5236C11.3818 25.6035 9.12694 23.68 7.26922 20.8878ZM35.3027 44.6124V47.0702H14.6972V44.6124C14.6972 43.2574 15.7998 42.1546 17.155 42.1546H32.8449C34.2002 42.1546 35.3027 43.2574 35.3027 44.6124ZM27.4578 39.2249H22.5421V33.9873C23.3474 34.1994 24.1679 34.3097 25 34.3097C25.832 34.3097 26.6525 34.1994 27.4578 33.9874V39.2249ZM28.3649 30.5023C28.2989 30.5293 28.2356 30.5621 28.1749 30.5984C27.1396 31.1134 26.0757 31.38 25 31.38C23.9246 31.38 22.8611 31.1134 21.8261 30.5992C21.7647 30.5619 21.7005 30.5293 21.6342 30.5015C20.4856 29.8942 19.3745 28.9771 18.3235 27.772C18.2685 27.6934 18.2061 27.6204 18.137 27.5539C17.0936 26.3153 16.1121 24.7916 15.2157 22.9988C12.5236 17.615 10.9687 10.5361 10.7918 2.92968H39.2081C39.0308 10.5361 37.4759 17.6155 34.7843 22.9988C33.8878 24.7917 32.9063 26.3152 31.8634 27.5539C31.7939 27.6203 31.731 27.6935 31.676 27.7725C30.6251 28.9779 29.5135 29.8946 28.3649 30.5023ZM42.7307 20.8878C40.8729 23.68 38.618 25.6035 36.1816 26.5235C36.62 25.8028 37.028 25.064 37.4045 24.3091C39.8574 19.4039 41.4264 13.224 41.9551 6.53837H47.0394C46.8093 11.977 45.2999 17.0268 42.7307 20.8878Z" fill="white"/>
</g>
<defs>
<clipPath id="clip0_1500_5647">
<rect width="50" height="50" fill="white"/>
</clipPath>
</defs>
</svg>
